<svg width="795" height="192" viewBox="0 0 795 192" fill="none" xmlns="http://www.w3.org/2000/svg">
<g clip-path="url(#clip0_141_214)">
<path d="M25.2898 154.099L38.3102 118.691L50.8299 154.099H25.2898ZM63.6 189.756H75.6189L44.5701 104.478H32.5512L0 189.756H12.0189L21.5339 163.574H54.085L63.6 189.756ZM120.439 171.553C120.439 178.535 114.68 182.275 105.165 182.275C97.4031 182.275 92.1449 180.031 89.1402 175.044L77.622 177.039C82.1291 186.265 91.3937 190.504 104.665 190.504C122.443 190.504 131.957 180.53 131.957 170.057C131.957 156.592 119.438 152.852 105.165 150.109C98.1543 148.613 90.1417 146.119 90.1417 140.135C90.1417 135.896 94.3984 130.66 102.912 130.66C111.676 130.66 116.934 136.644 117.685 138.888L127.701 134.649C122.943 125.922 113.679 122.182 103.913 122.182C88.8898 122.182 78.874 129.662 78.874 141.382C78.874 154.847 90.3921 157.34 101.409 159.834C111.175 162.078 120.439 164.322 120.439 171.553ZM155.995 104.478L144.728 109.216V124.925H134.461V133.901H144.728V175.543C144.477 184.021 144.477 190.005 157.247 190.005C161.254 190.005 166.011 189.257 167.764 189.008V180.031C165.51 180.779 162.756 181.527 160.502 181.527C155.745 181.527 155.745 178.286 155.745 170.556V133.901H167.764V124.925H155.995V104.478ZM177.529 124.925V189.756H188.546V159.834C188.546 154.348 188.296 147.616 191.301 143.127C194.806 137.392 200.065 135.148 210.831 135.148V123.927C206.324 124.177 194.806 124.426 188.546 136.644V125.174H177.529V124.925ZM275.433 104.478V114.951H324.009L275.433 178.535V189.507H338.031V179.532H288.454L336.78 115.2V104.478H275.433ZM406.389 124.925V189.756H417.406V152.852C417.406 148.114 417.406 143.127 422.164 138.39C425.669 134.899 429.676 133.403 434.683 133.403C440.693 133.403 446.702 136.145 448.706 142.379C449.457 144.623 449.457 146.369 449.457 153.101V189.756H460.224V151.356C460.224 145.87 460.224 141.881 459.222 138.14C455.967 127.418 446.202 123.429 437.939 123.429C434.183 123.429 423.666 124.426 417.657 134.899V124.925H406.389ZM575.906 174.047C573.652 178.535 569.395 182.525 560.882 182.525C553.62 182.525 541.101 178.036 541.101 156.592C541.101 150.857 542.102 130.41 560.131 130.41C569.145 130.41 573.402 135.397 575.405 139.636L585.671 135.397C579.411 124.925 567.893 122.431 559.88 122.431C539.098 122.431 529.082 139.138 529.082 157.34C529.082 173.299 537.846 190.753 560.631 190.753C573.902 190.753 581.414 184.27 585.42 178.036L575.906 174.047ZM353.806 150.608H388.361C387.359 133.652 377.594 130.909 371.083 130.909C361.568 130.66 355.058 137.642 353.806 150.608ZM397.375 177.288C393.619 183.522 386.357 190.753 372.335 190.753C353.055 190.753 342.038 177.787 342.038 156.094C342.038 131.657 358.063 122.431 371.835 122.431C383.854 122.431 395.121 128.914 399.128 145.371C400.38 150.857 400.38 155.844 400.38 158.587H353.806C353.556 169.309 358.063 183.023 373.337 182.774C379.597 182.774 384.104 179.782 386.858 175.294L397.375 177.288ZM477.751 150.608H512.306C511.304 133.652 501.539 130.909 495.028 130.909C485.764 130.66 479.003 137.642 477.751 150.608ZM521.32 177.288C517.564 183.522 510.302 190.753 496.28 190.753C477 190.753 465.983 177.787 465.983 156.094C465.983 131.657 482.008 122.431 495.78 122.431C507.798 122.431 519.066 128.914 523.072 145.371C524.324 150.857 524.324 155.844 524.324 158.587H477.501C477.25 169.309 481.757 183.023 497.031 182.774C503.291 182.774 507.798 179.782 510.553 175.294L521.32 177.288ZM645.265 189.756H633.997C633.997 189.756 632.995 185.268 632.745 180.281C629.49 183.771 623.23 190.753 610.961 190.753C598.441 190.753 588.926 183.273 588.926 172.301C588.926 168.81 589.928 165.319 591.931 162.577C595.687 157.091 602.447 152.603 621.978 151.106L632.244 150.358V148.613C632.244 141.881 632.244 130.66 617.721 130.66C608.707 130.66 605.452 135.148 604.45 139.138L594.435 134.899C594.685 134.649 594.685 134.151 594.935 133.901C598.691 126.919 606.454 122.431 617.22 122.431C623.23 122.431 630.992 123.927 636.25 127.917C643.512 133.403 643.261 144.125 643.261 144.125L643.762 177.288C643.512 177.288 644.013 187.013 645.265 189.756ZM630.491 171.803C632.244 168.312 632.244 166.816 632.244 157.34C627.987 158.088 622.228 158.836 615.217 160.332C603.198 162.826 601.195 167.564 601.195 172.052C601.195 177.288 605.202 181.527 613.465 181.527C620.726 181.527 627.236 178.535 630.491 171.803ZM267.671 189.756H256.403C256.403 189.756 255.402 185.268 255.151 180.281C251.896 183.771 245.636 190.753 233.367 190.753C220.847 190.753 211.332 183.273 211.332 172.301C211.332 168.81 212.334 165.319 214.337 162.577C218.093 157.091 224.854 152.603 244.384 151.106L254.65 150.358V148.613C254.65 141.881 254.65 130.66 240.128 130.66C231.113 130.66 227.858 135.148 226.857 139.138L216.841 134.899C217.091 134.649 217.091 134.151 217.342 133.901C221.098 126.919 228.86 122.431 239.627 122.431C245.636 122.431 253.398 123.927 258.406 127.917C265.668 133.403 265.417 144.125 265.417 144.125L265.918 177.288C265.918 177.288 266.169 187.013 267.671 189.756ZM252.647 171.803C254.4 168.312 254.4 166.816 254.4 157.34C250.143 158.088 244.384 158.836 237.373 160.332C225.354 162.826 223.101 167.564 223.101 172.052C223.101 177.288 227.107 181.527 235.37 181.527C243.132 181.527 249.392 178.535 252.647 171.803Z" fill="white"/>
<path d="M716.376 135.148C714.624 136.145 712.871 137.392 711.369 138.39C691.838 127.668 649.772 106.722 646.016 104.727C642.009 102.732 635.249 99.9896 636.25 93.5065C637.502 84.5299 653.277 64.5818 660.038 56.3533C696.095 12.2182 712.37 -1.24675 723.137 4.76461e-06C734.655 1.49611 740.915 13.2156 741.917 68.8208C735.406 66.826 728.395 64.8312 720.883 62.8364C720.383 54.8572 718.88 42.639 718.129 38.4C717.378 33.6623 716.627 31.9169 714.624 31.6675C712.37 31.4182 707.112 36.4052 702.354 41.3922C700.101 43.6364 694.091 49.8701 687.08 56.6026C681.321 56.3533 677.565 57.3507 675.562 60.0935C673.809 62.3377 673.559 65.3299 674.561 69.3195C670.805 73.0597 667.8 76.052 665.797 78.0468C658.285 85.5273 650.272 91.761 649.772 94.7533C649.521 97.2468 653.277 99.7403 658.786 102.982C672.057 111.21 704.858 128.914 716.376 135.148ZM767.457 79.7922C754.687 75.3039 722.887 63.5844 689.584 59.3455C678.066 57.8494 673.559 61.839 678.317 72.8104C683.074 83.5325 695.093 101.735 707.863 115.2C720.633 128.665 734.405 132.405 738.661 111.46C738.912 110.712 738.912 109.964 739.162 109.216C740.164 103.73 740.915 98.7429 741.416 94.0052C735.907 91.5117 729.397 88.7688 723.137 86.026C723.387 90.7636 724.139 98.9922 724.389 105.475C724.389 106.223 724.389 106.971 724.389 107.719C724.89 117.943 721.134 117.943 715.375 113.704C708.614 108.717 687.581 81.2883 685.077 69.0701C685.077 68.3221 685.328 68.3221 685.828 68.3221C686.079 68.3221 686.079 68.5714 686.329 68.5714C691.087 70.3169 706.861 76.5507 722.887 83.2831C729.397 86.026 735.657 88.7688 741.416 91.2623C747.175 93.7558 752.183 96.2494 755.939 98.2442C762.95 101.984 765.454 104.478 762.699 107.47C748.176 121.932 698.098 142.629 680.57 168.312C680.57 168.312 680.57 168.312 680.32 168.561C680.069 168.81 679.819 169.06 679.819 169.558C679.819 169.558 679.819 169.808 679.568 169.808C678.817 171.304 677.565 174.047 677.065 177.538C676.313 183.023 679.318 188.26 687.331 190.504C689.334 191.003 691.587 191.501 694.091 191.751C694.592 191.751 695.093 191.751 695.594 191.751C711.118 192.499 751.431 183.771 763.701 178.286C776.471 172.8 772.465 167.065 768.959 164.322C766.205 162.078 752.183 154.348 745.172 150.608C743.419 151.855 741.917 152.603 740.164 153.849C751.682 160.831 756.439 164.322 759.194 166.566C760.195 167.314 759.694 168.312 758.192 168.561C757.691 168.561 757.441 168.561 756.94 168.561C745.923 169.309 724.89 170.805 715.124 171.304C713.622 171.304 712.12 171.553 711.118 171.553C713.622 169.309 716.376 167.314 717.628 166.317C738.661 151.605 773.717 130.909 783.983 121.932C791.244 115.449 812.027 95.252 767.457 79.7922Z" fill="white"/>
</g>
<defs>
<clipPath id="clip0_141_214">
<rect width="795" height="192" fill="white"/>
</clipPath>
</defs>
</svg>
