<svg width="785" height="149" viewBox="0 0 785 149" fill="none" xmlns="http://www.w3.org/2000/svg">
<path d="M5.4636 124.572L227.681 95.3776C230.821 94.9989 230.947 97.2713 230.947 97.2713C231.01 98.9756 228.466 99.9224 228.466 99.9224C223.631 103.173 19.5936 148.243 19.5936 148.243C19.5936 148.243 12.9368 150.483 10.4876 145.118C8.007 139.816 3.14 130.821 3.14 130.821C3.14 130.821 -1.16179 125.14 5.4636 124.572ZM5.30661 83.1004C-1.31879 83.6685 2.983 89.3495 2.983 89.3495C2.983 89.3495 7.85 98.3444 10.2992 103.71C12.7798 109.012 19.4366 106.834 19.4366 106.834C19.4366 106.834 223.474 61.7335 228.341 58.4511C228.341 58.4511 230.853 57.5674 230.821 55.8C230.821 55.8 230.633 53.4961 227.556 53.9695L5.30661 83.1004ZM131.221 2.58798C125.788 -3.66112 114.422 4.89194 114.422 4.89194L86.9466 26.7954C80.3526 31.6873 75.2658 32.6973 75.2658 32.6973L5.2752 41.8816C-1.3502 42.4497 2.9516 48.0991 2.9516 48.0991C2.9516 48.0991 7.8186 57.094 10.2992 62.4279C12.7798 67.7617 19.4052 65.5524 19.4052 65.5524C19.4052 65.5524 54.4476 57.9146 81.2946 51.918C81.2946 51.918 90.903 49.33 97.497 42.7968L128.206 16.033C136.496 9.97328 145.539 18.1792 145.539 18.1792C145.539 18.1792 136.653 8.83708 131.221 2.58798ZM227.493 12.9716L163.406 21.3037L163.343 21.2406C151.568 22.6293 145.508 18.1792 145.508 18.1792L151.662 23.7339L159.135 29.6359C159.135 29.6359 162.778 32.7288 168.116 32.287L168.178 32.3501C168.492 32.287 168.775 32.2239 169.058 32.1607C169.529 32.0976 170 31.9714 170.533 31.8451H170.502C202.185 24.523 226.645 18.5895 228.278 17.4848C228.278 17.4848 230.79 16.5696 230.759 14.8337C230.759 14.8021 230.57 12.5613 227.493 12.9716ZM291.957 87.7714V75.4626H300.372C304.957 75.4626 307.594 76.7566 307.594 81.617C307.594 85.3412 304.957 87.7399 301 87.7399H291.957V87.7714ZM291.957 64.3215V53.3067H300.058C304.329 53.3067 306.244 54.4429 306.244 58.8299C306.244 62.6488 303.952 64.3531 300.058 64.3531H291.957V64.3215ZM277.042 98.9441H300.372C306.244 98.9441 322.509 98.9441 322.509 83.7C322.509 73.0955 315.193 70.4444 310.515 69.8132V69.4029C313.372 68.6769 320.908 66.9411 320.908 56.3366C320.908 42.1341 305.836 42.1341 300.906 42.1341H277.011V98.9441H277.042ZM351.868 89.3495C345.212 89.3495 343.924 82.1851 343.924 74.8945C343.924 67.5723 345.212 60.3764 351.868 60.3764C359.028 60.3764 359.813 67.5407 359.813 74.8945C359.813 82.1851 359.028 89.3495 351.868 89.3495ZM351.868 49.6772C336.074 49.6772 328.695 60.9445 328.695 74.8945C328.695 88.7814 336.074 100.049 351.868 100.049C367.663 100.049 375.042 88.7814 375.042 74.8945C375.073 60.9445 367.663 49.6772 351.868 49.6772ZM382.829 98.9125H397.744V68.5823C400.193 65.2368 403.93 63.2484 408.608 63.2484C411.214 63.2484 412.565 63.5325 413.444 63.9428V50.4977C412.565 50.3399 411.623 50.2453 410.743 50.2453C407.572 50.2453 400.884 52.4861 397.869 58.5458H397.712V50.8134H382.797V98.9125H382.829ZM454.358 61.197C452.851 57.2203 449.993 49.7087 435.392 49.7087C432.221 49.7087 415.956 49.7087 415.956 65.2052C415.956 73.348 420.948 76.8513 426.443 78.524L435.016 80.8911C438.909 81.9957 440.008 82.5638 440.008 85.4359C440.008 87.6767 438.03 89.6651 434.607 89.6651C431.122 89.6651 428.265 87.4558 427.605 83.9841L414.888 87.6767C416.27 90.6435 418.939 100.049 434.67 100.049C442.677 100.049 454.892 97.8079 454.892 83.921C454.892 76.441 450.778 71.7068 443.305 69.6553L438.25 68.2351C433.791 67.0358 430.4 66.4045 430.4 63.6587C430.4 61.4495 431.75 59.7452 435.487 59.7452C439.914 59.7452 440.793 61.8913 442.143 65.1105L454.358 61.197ZM486.103 84.6469C484.125 86.3196 481.519 88.5604 478.159 88.5604C475.396 88.5604 473.418 86.6352 473.418 83.8578C473.418 79.8811 476.369 77.3878 480.954 77.3878C482.461 77.3878 484.376 77.5456 486.103 77.7034V84.6469ZM500.799 70.3812C500.799 58.2302 496.528 49.7087 480.954 49.7087C464.594 49.7087 461.203 60.1554 460.481 62.3963L473.732 66.2467C474.297 63.1222 475.867 59.7767 480.263 59.7767C484.942 59.7767 486.135 62.491 486.135 67.1305V68.6454C484.565 68.4876 482.398 68.3298 480.483 68.3298C469.21 68.3298 458.974 73.6005 458.974 85.5937C458.974 91.3378 461.988 100.112 472.633 100.112C478.253 100.112 482.869 95.9457 486.103 92.7896H486.355C486.355 94.5255 486.606 96.9241 486.669 99.0072H501.113C500.861 96.7663 500.799 93.4209 500.799 90.5488V70.3812ZM542.215 42.1025H534.899V98.9125H542.215V42.1025ZM557.067 55.516H550.002V60.7867H557.067V87.6767C557.067 92.9159 558.794 99.8593 568.905 99.8593C570.098 99.8593 572.862 99.5437 575.468 98.5338V92.9159C573.019 93.8943 571.825 94.3046 569.627 94.3046C564.446 94.3046 564.038 90.7066 564.038 86.8246V60.8182H575.091V55.5475H564.038V40.9663L557.067 43.933V55.516ZM606.836 75.147V85.7515C600.399 93.1052 596.6 93.7996 593.743 93.7996C587.934 93.7996 585.893 89.7282 585.893 85.4359C585.893 78.3346 591.764 75.147 601.781 75.147H606.836ZM587.149 64.4478C589.221 59.3349 591.921 56.0525 597.699 56.0525C606.836 56.0525 606.836 63.6272 606.836 66.8148V69.8447H600.085C587.149 69.8447 578.89 75.2732 578.89 86.0356C578.89 92.19 582.282 99.3543 591.984 99.3543C597.573 99.3543 602.158 96.8926 606.679 90.896H606.836V98.8809H614.215C613.839 96.2614 613.839 94.3993 613.839 93.3893V68.5823C613.839 60.2817 612.017 50.7818 598.139 50.7818C586.803 50.7818 583.286 56.9047 581.151 62.5857L587.149 64.4478ZM624.829 98.9125H631.799V36.9265H624.829V98.9125ZM644.045 98.9441H651.016V51.7918H644.045V98.9441ZM643.637 43.9646H651.424V36.9265H643.637V43.9646ZM687.88 75.147V85.7515C681.443 93.1052 677.643 93.7996 674.786 93.7996C668.977 93.7996 666.936 89.7282 666.936 85.4359C666.936 78.3346 672.808 75.147 682.824 75.147H687.88ZM668.192 64.4478C670.264 59.3349 672.965 56.0525 678.742 56.0525C687.88 56.0525 687.88 63.6272 687.88 66.8148V69.8447H681.129C668.192 69.8447 659.934 75.2732 659.934 86.0356C659.934 92.19 663.356 99.3543 673.028 99.3543C678.585 99.3543 683.201 96.8926 687.723 90.896H687.88V98.8809H695.259C694.882 96.2614 694.882 94.3993 694.882 93.3893V68.5823C694.882 60.2817 693.061 50.7818 679.151 50.7818C667.784 50.7818 664.298 56.9047 662.163 62.5857L668.192 64.4478ZM705.338 98.9441H712.309V65.3315C715.166 61.986 719.374 57.1887 725.874 57.1887C731.683 57.1887 732.782 61.8913 732.782 66.6886V98.9125H739.784V64.1321C739.847 55.2004 735.419 50.8134 728.197 50.8134C721.038 50.8134 716.14 55.9894 712.309 59.4295V51.7602H705.338V98.9441ZM776.051 75.147V85.7515C769.614 93.1052 765.815 93.7996 762.957 93.7996C757.148 93.7996 755.107 89.7282 755.107 85.4359C755.107 78.3346 760.979 75.147 770.996 75.147H776.051ZM756.363 64.4478C758.404 59.3349 761.105 56.0525 766.914 56.0525C776.051 56.0525 776.051 63.6272 776.051 66.8148V69.8447H769.3C756.363 69.8447 748.105 75.2732 748.105 86.0356C748.105 92.19 751.528 99.3543 761.23 99.3543C766.757 99.3543 771.372 96.8926 775.925 90.896H776.082V98.8809H783.461C783.053 96.2614 783.053 94.3993 783.053 93.3893V68.5823C783.053 60.2817 781.232 50.7818 767.353 50.7818C756.018 50.7818 752.501 56.9047 750.366 62.5857L756.363 64.4478Z" fill="white"/>
</svg>
