<svg width="319" height="262" viewBox="0 0 319 262" fill="none" xmlns="http://www.w3.org/2000/svg">
<g clip-path="url(#clip0_142_231)">
<path d="M60.5741 231.134V209.241C74.1944 209.241 79.2123 208.523 81.7213 225.392H83.155V206.729H45.5202V209.241H51.9719V257.693H44.8033V260.205H83.5135V240.466H81.7213C79.9292 255.54 75.9865 257.693 65.2337 257.693H60.2157V234.364H63.0831C67.7427 234.364 70.6101 237.236 71.6854 245.49H73.4775V221.085H71.6854C71.6854 221.085 71.3269 231.493 63.0831 231.493L60.5741 231.134Z" fill="white"/>
<path d="M45.1618 231.852H24.0146V234.364H31.1831V251.592C30.1079 255.899 23.2977 257.693 21.5056 257.693C7.88539 257.693 8.96067 237.953 8.96067 232.57C8.96067 227.904 8.60224 207.447 21.5056 207.447C30.8247 207.447 35.4843 216.419 37.2764 224.674H38.7101C38.7101 221.444 38.7101 205.293 38.7101 205.293C38.7101 205.293 32.2584 209.959 32.2584 209.6C32.2584 209.6 29.391 205.293 21.1472 205.293C5.3764 205.293 -0.716858 221.085 -0.716858 232.211C-0.716858 242.26 3.94269 259.847 21.1472 259.847C26.5236 259.847 30.1079 256.975 32.2584 254.104L39.0685 259.488V234.005H44.8034V231.852H45.1618Z" fill="white"/>
<path d="M292.118 240.107C290.326 255.181 286.383 257.334 275.63 257.334H274.913V209.241H281.724V206.729H259.501V209.241H266.311V257.693H260.935L241.221 205.293H238.354C238.354 205.293 221.866 252.669 221.866 253.027C221.866 253.027 220.791 256.975 217.924 257.693C215.415 257.693 215.773 256.616 215.773 255.899V246.567C215.773 244.055 215.415 238.671 213.264 236.159C210.397 233.288 205.737 233.288 205.737 232.929C205.737 232.929 217.924 230.416 217.924 218.932C217.924 210.677 212.189 206.729 202.87 206.37H176.346V208.882H183.156V257.334H176.346V259.847H198.21V257.334H191.4V234.005H200.361C216.131 235.441 197.493 259.847 218.282 259.847H231.185V257.334C230.469 257.334 225.809 257.334 225.451 254.104C225.092 251.592 228.676 242.978 228.676 242.978H246.598C246.598 242.978 251.974 257.334 252.333 257.334H246.239V259.847H294.627V240.107H292.118ZM200.002 231.493H191.4V209.241H202.511C208.963 210.318 209.321 217.855 209.321 220.008C209.321 225.751 206.812 231.493 200.002 231.493ZM230.11 240.825L237.996 217.855L246.239 240.825H230.11Z" fill="white"/>
<path d="M149.822 208.882C163.443 208.882 168.819 208.164 170.97 225.033H172.403V206.37H117.922V208.882H119.356C121.148 208.882 125.808 208.882 126.166 213.189V244.055L100.718 206.37H86.7393V208.882H88.8899C91.7573 208.882 95.3416 208.882 95.7 213.189V252.669C95.7 256.616 89.9652 258.052 87.4562 258.052V259.847H106.453V258.052C103.944 258.052 98.209 256.616 98.209 252.669V217.855C108.245 232.211 127.242 259.847 127.6 259.847H128.675V213.189C129.034 209.241 133.335 208.882 135.485 208.882H141.579V257.334H134.41V259.847H173.12V240.107H171.328C169.536 255.181 165.593 257.334 154.84 257.334H149.822V234.005H152.69C157.349 234.005 160.217 236.877 161.292 245.132H163.084V220.726H161.292C161.292 220.726 160.934 231.134 152.69 231.134H150.181V208.882H149.822Z" fill="white"/>
<path d="M318.642 209.241V206.37H296.777V209.241H303.588V257.334H296.777V259.847H318.642V257.334H311.473V209.241H318.642Z" fill="white"/>
<path d="M260.935 173.351L267.745 170.838C277.422 166.89 278.856 164.378 278.139 157.918V132.077C285.308 150.74 292.476 163.66 306.455 163.66C308.247 163.66 310.398 163.301 312.548 162.942L317.925 161.866L313.982 157.559C311.473 155.047 310.398 152.893 308.964 150.381C308.247 149.304 307.889 148.227 307.172 147.151C303.946 141.767 296.061 139.973 289.609 142.844C286.742 137.101 283.874 129.564 280.29 120.233L279.573 118.438C278.856 117.003 278.498 115.567 277.781 114.132V113.773C275.63 108.748 273.121 104.082 270.612 99.4164C268.103 95.1096 265.594 91.5205 262.727 88.2904C255.2 79.6767 245.522 74.2931 233.694 72.1397C225.451 70.7041 219.716 70.3452 212.189 69.9863C210.755 69.9863 208.963 69.9863 207.529 69.6274C204.303 69.2685 197.493 68.9096 190.683 68.1918C186.024 67.8329 181.722 67.474 178.138 67.1151C178.497 66.0384 178.497 64.9616 178.497 63.8849C178.497 62.4493 178.497 61.0137 178.138 59.937H225.451C237.637 59.937 246.598 54.5534 251.616 43.7863C263.802 43.7863 272.405 38.0438 277.781 27.6356H279.573C292.118 27.6356 301.079 21.8932 306.455 10.4082L308.247 7.17808H148.389C137.994 7.17808 129.034 13.9973 125.449 24.7644V25.1233C122.582 17.5863 117.922 11.126 111.471 7.17808C102.51 1.79452 92.4742 -4.21163e-07 84.5888 2.51233C82.0798 3.23014 79.2124 4.30685 77.0618 5.74247C75.2697 7.17808 72.4023 8.9726 70.6101 11.4849C68.4596 13.9973 66.6674 17.2274 65.2337 20.0986C64.1584 20.8164 63.4416 21.5342 63.0831 22.2521L61.291 25.8411V26.2C59.1405 31.2247 56.273 34.8137 54.1225 37.6849C51.9719 40.1973 51.9719 42.7096 51.9719 44.1452C52.3303 45.9397 53.0472 47.3753 54.1225 48.4521C53.4056 49.5288 53.0472 50.9644 53.0472 52.0411C53.0472 56.3479 56.6315 59.5781 61.291 59.5781C64.5169 59.5781 67.3843 58.1425 70.2517 55.989C71.327 55.2712 74.5528 53.1178 75.6281 53.1178C77.0618 53.1178 78.1371 54.1945 78.1371 55.6301C78.1371 59.2192 73.836 61.0137 70.6101 61.0137L64.1584 61.7315C59.4989 62.0904 57.3483 64.6027 57.3483 66.7562C57.3483 68.9096 58.4236 70.3452 59.1405 71.063L59.4989 71.4219L61.291 72.8575L53.764 84.3425C48.7461 79.6767 43.0112 77.1644 37.9933 76.8055C34.7674 76.8055 31.9 77.5233 29.7494 79.6767C29.0326 80.3945 28.6742 80.7534 28.3157 81.4712C22.9393 81.4712 18.6382 84.3425 16.4876 87.5726C13.9787 91.1616 15.0539 97.263 17.9213 101.929L0 106.953V190.219H319V173.71H260.935V173.351ZM302.154 150.74C302.871 151.816 303.229 152.893 303.946 153.611C304.663 154.688 305.38 155.764 306.097 157.2C301.079 156.841 297.136 153.97 293.91 148.945C296.778 147.51 300.72 148.586 302.154 150.74ZM232.978 79.6767C243.372 81.4712 251.616 86.137 258.067 93.3151C259.501 94.7507 260.576 96.5452 262.01 98.3397C244.806 96.1863 238.712 93.674 229.035 78.9589C230.469 78.9589 231.544 79.3178 232.978 79.6767ZM225.451 54.5534H192.834C195.701 52.0411 197.852 48.811 199.644 45.2219H243.73C240.146 51.6822 234.053 54.5534 225.451 54.5534ZM251.257 38.7616H218.64C221.508 36.2493 224.017 33.0192 225.809 29.0712H269.896C266.311 35.5315 260.218 38.7616 251.257 38.7616ZM253.766 13.9973H297.494C293.193 19.7397 287.458 22.611 279.215 22.611H246.598C249.465 20.0986 251.974 17.2274 253.766 13.9973ZM75.9865 15.4329C77.0618 13.9973 78.8539 12.5616 80.6461 11.126C82.0798 10.0493 84.2303 8.9726 86.3809 8.6137C89.6067 7.89589 93.191 7.89589 96.7753 8.6137L84.9472 15.7918C83.5135 15.7918 82.0798 15.4329 80.6461 15.4329C78.4955 15.4329 76.7034 15.4329 75.2697 15.7918C75.6281 15.7918 75.6281 15.7918 75.9865 15.4329ZM62.3663 67.1151C62.3663 66.7562 62.7247 66.3973 63.0831 66.3973L68.818 66.7562C75.6281 66.3973 82.7966 63.526 83.5135 56.3479C83.5135 51.3233 79.9292 46.6575 75.2697 46.6575C72.7607 46.6575 69.5348 48.4521 66.309 50.6055C64.1584 52.0411 62.3663 53.1178 61.291 53.1178C60.5742 53.1178 59.8573 52.4 59.8573 52.0411C59.8573 52.0411 59.8573 52.0411 59.8573 51.6822L63.4416 46.6575L60.2157 44.5041C59.4989 44.1452 58.4236 43.0685 58.4236 42.7096C58.4236 42.3507 58.782 41.9918 58.782 41.6329C60.2157 40.1973 61.6494 38.4027 63.0831 35.8904C64.1584 34.4548 64.5169 33.737 65.9506 33.737C67.3843 33.737 68.818 34.8137 68.818 36.6082C68.818 37.6849 69.8933 38.4027 71.327 38.4027C72.7607 38.4027 73.4775 37.326 74.1944 36.6082C74.1944 36.6082 77.4202 33.737 75.6281 32.3014C73.836 30.8658 65.9506 34.0959 68.1011 26.9178L68.818 25.8411C69.5348 24.7644 73.4775 21.8931 81.0045 21.8931C82.4382 21.8931 83.8719 21.8931 85.664 22.2521H86.7393L103.227 12.2027C103.227 12.5616 103.585 12.9205 103.585 12.9205C104.302 17.9452 101.435 23.6877 96.4169 26.5589L94.2663 27.6356L95.7 35.1726C91.3989 36.6082 88.5315 39.8384 88.5315 43.7863C88.5315 45.2219 88.8899 47.0164 89.2483 48.811C89.6067 51.3233 90.3236 53.8356 90.3236 56.3479C90.3236 64.2438 79.5708 69.2685 70.6101 68.9096H70.2517C69.8933 68.9096 64.1584 68.5507 62.7247 67.474C62.3663 67.8329 62.3663 67.474 62.3663 67.1151ZM21.5056 91.5205C22.9393 89.3671 25.8067 87.9315 29.391 88.2904L32.2584 88.6493L33.3337 86.137C33.6921 85.4192 34.0506 84.7014 34.409 84.3425C35.1258 83.6247 36.5596 83.2658 37.9933 83.2658C41.936 83.2658 46.9539 86.137 50.8966 90.4438C52.3303 91.8795 53.764 94.0329 54.8393 95.8274C55.1978 96.1863 55.1978 96.5452 55.5562 96.9041C55.9146 97.263 56.273 97.9808 56.273 97.9808C56.273 98.3397 58.4236 101.211 58.4236 101.57C59.8573 99.7753 61.291 97.6219 62.3663 95.8274V95.4685C62.0079 94.7507 61.291 93.674 60.9326 92.9562L60.5742 92.5973C60.5742 92.5973 60.2157 92.2384 60.2157 91.8794C59.8573 91.1616 59.1404 90.0849 58.782 89.726L67.3843 76.0877C69.5348 76.4466 71.327 76.4466 72.4023 76.4466H72.7607C84.9472 76.4466 97.4921 69.2685 97.4921 57.7836V57.4247C97.4921 54.1945 96.7753 51.3233 96.4169 48.811C96.0584 47.0164 95.7 45.5808 95.7 44.863C95.7 43.4274 97.4921 41.9918 100.001 41.9918H103.944L102.152 31.9425C107.528 27.9945 111.112 21.1753 110.754 15.074C116.847 19.7397 120.79 27.6356 121.507 35.8904C121.865 38.4027 121.148 41.6329 120.431 45.2219L120.073 46.6575C118.639 52.4 116.489 58.5014 115.413 61.3726L114.338 63.8849L116.847 65.3205C121.148 67.8329 124.016 69.6274 124.016 75.3699C124.016 82.189 117.922 87.2137 112.188 88.2904L103.944 89.726L110.754 94.3918C112.904 95.8274 114.338 98.3397 114.338 100.852C114.338 105.159 110.754 108.389 106.453 108.389H103.944L103.227 110.542C100.718 118.438 98.209 122.386 89.6067 123.463C89.6067 120.951 89.6067 118.438 89.6067 115.208C89.6067 114.49 89.6067 112.337 89.6067 111.619L89.2483 104.082L83.8719 109.466C82.0798 111.26 78.8539 112.696 75.2697 113.414V106.953L37.6348 96.9041L24.373 100.493C21.5056 97.6219 20.7888 92.5973 21.5056 91.5205ZM10.7528 173.351L37.9933 166.173L65.2337 173.351H10.7528ZM68.818 167.608L37.6348 159.353L6.45169 167.608V111.978L37.6348 103.723L68.818 111.978V167.608ZM83.5135 156.841C80.6461 160.789 80.2876 166.532 82.4382 173.351H75.6281V120.233C78.1371 119.874 80.6461 119.156 83.1551 118.079C83.1551 120.233 82.7966 122.386 82.4382 124.54C82.4382 125.258 82.0798 125.616 82.0798 126.334L81.3629 130.282H85.3056C91.0404 130.282 95.3416 129.205 98.9258 127.77V150.022C98.9258 150.74 98.5674 151.099 97.8506 151.099H96.7753C91.0405 150.74 86.0225 152.893 83.5135 156.841ZM155.199 158.277C152.69 161.148 150.539 165.814 151.973 173.351H111.471C115.772 172.992 118.998 171.915 121.148 169.762C123.657 166.89 124.016 163.301 124.016 160.43C124.016 160.071 124.374 159.353 126.525 158.277L130.109 156.841L127.958 153.611C124.374 148.227 126.166 136.742 127.242 130.282H127.6C141.22 130.282 150.181 127.411 159.5 124.54C162.009 123.822 164.518 123.104 167.027 122.027C167.027 122.027 169.894 121.31 173.479 120.233L186.74 142.126V142.485C188.174 144.279 188.174 145.715 185.665 148.227L179.213 155.405L168.461 153.252C163.801 152.534 158.425 154.688 155.199 158.277ZM158.783 173.351C157.708 168.685 158.066 165.096 160.217 162.584C162.367 160.071 165.235 159.712 167.744 159.712L180.289 161.866H180.647H182.439L191.4 152.175C192.834 150.381 197.493 144.997 192.834 138.178L181.006 118.797C182.798 118.438 184.948 118.438 186.74 118.438C186.74 118.438 192.834 118.438 199.285 122.027C200.002 123.822 201.436 126.334 202.511 129.205C205.02 134.23 208.246 140.69 208.963 143.203C209.321 143.921 210.038 146.433 207.171 149.663L184.59 173.71L158.783 173.351ZM236.203 173.351H193.192L211.472 153.97C215.056 150.022 216.49 145.356 214.698 141.049C213.981 138.537 211.472 133.512 208.963 128.129C216.131 131.359 227.243 134.589 249.824 136.384C252.691 136.742 253.408 137.46 253.766 139.973L254.842 149.663L243.014 152.175C239.071 152.893 235.845 155.405 234.411 159.353C232.978 163.66 233.694 168.685 236.203 173.351ZM240.863 161.866C241.58 160.071 242.655 158.995 244.447 158.636L262.01 154.688L260.576 138.896V138.537C260.218 136.384 258.784 130.282 250.54 129.564C218.999 127.052 211.83 122.386 203.945 117.362L203.587 117.003C195.343 111.619 187.099 111.619 186.382 111.619C177.421 111.619 166.31 115.208 165.235 115.567C162.367 116.285 159.858 117.362 157.349 118.079C147.313 121.31 139.07 124.181 124.733 123.463H122.224L121.507 125.975C121.148 127.77 116.847 143.921 120.79 153.97C117.206 156.841 117.206 159.712 117.206 160.43C117.206 164.019 116.489 164.737 116.13 165.096C114.338 166.89 108.962 166.89 104.302 166.89H102.51L101.435 168.326C98.5674 172.274 92.4742 173.351 88.5315 172.274C86.7393 166.89 86.7393 162.942 88.5315 160.43C90.682 157.559 94.6247 157.2 96.4169 157.2H97.4921C101.793 157.2 105.019 153.611 105.019 149.663V121.31C106.453 119.515 107.17 117.003 108.245 114.49C115.055 113.414 120.431 107.671 120.431 100.493C120.431 97.6219 119.715 95.1096 118.281 92.9562C124.733 89.726 130.109 83.6247 130.109 75.3699C130.109 67.1151 125.808 63.1671 121.865 61.0137C122.94 57.7836 124.733 52.4 126.166 46.6575L131.543 26.9178C134.052 19.0219 140.503 13.9973 148.03 13.9973H245.522C241.221 19.7397 235.487 22.611 227.243 22.611H168.819L165.593 29.0712H218.64C214.339 35.5315 208.246 38.7616 199.644 38.7616H161.292L158.066 45.2219H192.117C187.816 51.6822 182.081 54.5534 173.479 54.5534H152.69L149.464 61.0137H171.328C171.687 61.3726 172.045 62.4493 172.045 64.9616C172.045 69.2685 168.461 72.4986 164.16 72.4986C162.726 72.4986 161.292 72.1397 159.142 71.063C158.066 70.7041 157.349 70.3452 156.274 69.9863L151.256 74.652C152.331 75.011 153.048 75.3699 154.124 75.7288C158.425 77.5233 160.934 78.6 164.16 78.6C168.102 78.6 171.687 76.8055 174.554 74.2932C178.138 74.6521 184.231 75.011 190.325 75.3699C197.493 76.0877 203.945 76.4466 207.529 76.8055C209.321 76.8055 210.755 76.8055 212.547 77.1644C215.415 77.1644 218.282 77.5233 220.791 77.5233C234.053 99.0575 240.863 101.929 266.67 105.159C268.462 108.389 270.254 111.978 271.688 115.567V157.559V157.918C271.688 159.712 271.688 160.43 271.688 160.789C270.612 161.866 266.67 163.66 265.594 164.019L243.73 172.992C240.863 169.044 239.788 165.096 240.863 161.866Z" fill="white"/>
<path d="M62.0079 120.592L41.2191 115.208V122.027L62.0079 127.411V120.592Z" fill="white"/>
<path d="M13.6202 127.411L34.409 122.027V115.208L13.6202 120.592V127.411Z" fill="white"/>
<path d="M13.6202 141.049L34.409 135.666V128.847L13.6202 134.23V141.049Z" fill="white"/>
<path d="M62.0079 134.23L41.2191 128.847V135.666L62.0079 141.049V134.23Z" fill="white"/>
<path d="M62.0079 147.869L41.2191 142.485V149.304L62.0079 154.688V147.869Z" fill="white"/>
<path d="M13.6202 154.688L34.409 149.304V142.485L13.6202 147.869V154.688Z" fill="white"/>
</g>
<defs>
<clipPath id="clip0_142_231">
<rect width="319" height="262" fill="white"/>
</clipPath>
</defs>
</svg>
